<svg width="130" height="150" viewBox="0 0 130 150" fill="none" xmlns="http://www.w3.org/2000/svg">
<path d="M35.1 101.6L52.1 55.2H61.8L40.3 110H29.7L8.2 55.2H18L35.1 101.6ZM100.851 64.1C102.451 60.9667 104.717 58.5333 107.651 56.8C110.651 55.0667 114.284 54.2 118.551 54.2V63.6H116.151C105.951 63.6 100.851 69.1333 100.851 80.2V110H91.7508V55.2H100.851V64.1Z" fill="white"/>
<path d="M73.6547 110.6C71.9214 110.6 70.4547 110 69.2547 108.8C68.0547 107.6 67.4547 106.133 67.4547 104.4C67.4547 102.667 68.0547 101.2 69.2547 100C70.4547 98.8 71.9214 98.2 73.6547 98.2C75.3214 98.2 76.7214 98.8 77.8547 100C79.0547 101.2 79.6547 102.667 79.6547 104.4C79.6547 106.133 79.0547 107.6 77.8547 108.8C76.7214 110 75.3214 110.6 73.6547 110.6Z" fill="#647BFF"/>
</svg>
