<svg width="1280" height="798" viewBox="0 0 1280 798" fill="none" xmlns="http://www.w3.org/2000/svg">
<rect width="1280" height="798" fill="#171B3C"/>
<path d="M384.646 272.38H358.806L354.046 285.555H345.886L367.306 226.65H376.231L397.566 285.555H389.406L384.646 272.38ZM382.436 266.09L371.726 236.17L361.016 266.09H382.436ZM451.781 243.48C450.138 240.023 447.758 237.36 444.641 235.49C441.525 233.563 437.898 232.6 433.761 232.6C429.625 232.6 425.885 233.563 422.541 235.49C419.255 237.36 416.648 240.08 414.721 243.65C412.851 247.163 411.916 251.243 411.916 255.89C411.916 260.536 412.851 264.616 414.721 268.13C416.648 271.643 419.255 274.363 422.541 276.29C425.885 278.16 429.625 279.095 433.761 279.095C439.541 279.095 444.301 277.366 448.041 273.91C451.781 270.453 453.963 265.778 454.586 259.885H430.956V253.595H462.831V259.545C462.378 264.418 460.848 268.895 458.241 272.975C455.635 276.998 452.206 280.2 447.956 282.58C443.706 284.903 438.975 286.065 433.761 286.065C428.265 286.065 423.25 284.79 418.716 282.24C414.183 279.633 410.585 276.035 407.921 271.445C405.315 266.855 404.011 261.67 404.011 255.89C404.011 250.11 405.315 244.925 407.921 240.335C410.585 235.688 414.183 232.09 418.716 229.54C423.25 226.933 428.265 225.63 433.761 225.63C440.051 225.63 445.605 227.188 450.421 230.305C455.295 233.421 458.836 237.813 461.046 243.48H451.781ZM480.624 226.31V263.795C480.624 269.065 481.899 272.975 484.449 275.525C487.055 278.075 490.654 279.35 495.244 279.35C499.777 279.35 503.319 278.075 505.869 275.525C508.475 272.975 509.779 269.065 509.779 263.795V226.31H517.514V263.71C517.514 268.64 516.522 272.805 514.539 276.205C512.555 279.548 509.864 282.041 506.464 283.685C503.12 285.328 499.352 286.15 495.159 286.15C490.965 286.15 487.169 285.328 483.769 283.685C480.425 282.041 477.762 279.548 475.779 276.205C473.852 272.805 472.889 268.64 472.889 263.71V226.31H480.624ZM565.437 272.38H539.597L534.837 285.555H526.677L548.097 226.65H557.022L578.357 285.555H570.197L565.437 272.38ZM563.227 266.09L552.517 236.17L541.807 266.09H563.227ZM618.887 285.555L604.777 261.33H595.427V285.555H587.692V226.31H606.817C611.294 226.31 615.062 227.075 618.122 228.605C621.239 230.135 623.562 232.203 625.092 234.81C626.622 237.416 627.387 240.391 627.387 243.735C627.387 247.815 626.197 251.413 623.817 254.53C621.494 257.646 617.981 259.715 613.277 260.735L628.152 285.555H618.887ZM595.427 255.125H606.817C611.011 255.125 614.156 254.105 616.252 252.065C618.349 249.968 619.397 247.191 619.397 243.735C619.397 240.221 618.349 237.501 616.252 235.575C614.212 233.648 611.067 232.685 606.817 232.685H595.427V255.125ZM657.851 226.31C664.311 226.31 669.893 227.528 674.596 229.965C679.356 232.345 682.983 235.773 685.476 240.25C688.026 244.726 689.301 249.996 689.301 256.06C689.301 262.123 688.026 267.393 685.476 271.87C682.983 276.29 679.356 279.69 674.596 282.07C669.893 284.393 664.311 285.555 657.851 285.555H639.406V226.31H657.851ZM657.851 279.18C665.501 279.18 671.338 277.168 675.361 273.145C679.385 269.065 681.396 263.37 681.396 256.06C681.396 248.693 679.356 242.941 675.276 238.805C671.253 234.668 665.445 232.6 657.851 232.6H647.141V279.18H657.851ZM734.524 272.38H708.684L703.924 285.555H695.764L717.184 226.65H726.109L747.444 285.555H739.284L734.524 272.38ZM732.314 266.09L721.604 236.17L710.894 266.09H732.314ZM803.359 285.555H795.624L764.514 238.38V285.555H756.779V226.225H764.514L795.624 273.315V226.225H803.359V285.555ZM834.99 226.31C841.45 226.31 847.032 227.528 851.735 229.965C856.495 232.345 860.122 235.773 862.615 240.25C865.165 244.726 866.44 249.996 866.44 256.06C866.44 262.123 865.165 267.393 862.615 271.87C860.122 276.29 856.495 279.69 851.735 282.07C847.032 284.393 841.45 285.555 834.99 285.555H816.545V226.31H834.99ZM834.99 279.18C842.64 279.18 848.477 277.168 852.5 273.145C856.523 269.065 858.535 263.37 858.535 256.06C858.535 248.693 856.495 242.941 852.415 238.805C848.392 234.668 842.583 232.6 834.99 232.6H824.28V279.18H834.99ZM903.503 286.15C898.006 286.15 892.991 284.875 888.458 282.325C883.924 279.718 880.326 276.12 877.663 271.53C875.056 266.883 873.753 261.67 873.753 255.89C873.753 250.11 875.056 244.925 877.663 240.335C880.326 235.688 883.924 232.09 888.458 229.54C892.991 226.933 898.006 225.63 903.503 225.63C909.056 225.63 914.099 226.933 918.633 229.54C923.166 232.09 926.736 235.66 929.343 240.25C931.949 244.84 933.253 250.053 933.253 255.89C933.253 261.726 931.949 266.94 929.343 271.53C926.736 276.12 923.166 279.718 918.633 282.325C914.099 284.875 909.056 286.15 903.503 286.15ZM903.503 279.435C907.639 279.435 911.351 278.471 914.638 276.545C917.981 274.618 920.588 271.87 922.458 268.3C924.384 264.73 925.348 260.593 925.348 255.89C925.348 251.13 924.384 246.993 922.458 243.48C920.588 239.91 918.009 237.161 914.723 235.235C911.436 233.308 907.696 232.345 903.503 232.345C899.309 232.345 895.569 233.308 892.283 235.235C888.996 237.161 886.389 239.91 884.463 243.48C882.593 246.993 881.658 251.13 881.658 255.89C881.658 260.593 882.593 264.73 884.463 268.3C886.389 271.87 888.996 274.618 892.283 276.545C895.626 278.471 899.366 279.435 903.503 279.435ZM589.917 414.15C586.007 414.15 582.494 413.47 579.377 412.11C576.317 410.693 573.909 408.766 572.152 406.33C570.396 403.836 569.489 400.975 569.432 397.745H577.677C577.961 400.521 579.094 402.873 581.077 404.8C583.117 406.67 586.064 407.605 589.917 407.605C593.601 407.605 596.491 406.698 598.587 404.885C600.741 403.015 601.817 400.635 601.817 397.745C601.817 395.478 601.194 393.636 599.947 392.22C598.701 390.803 597.142 389.726 595.272 388.99C593.402 388.253 590.881 387.46 587.707 386.61C583.797 385.59 580.652 384.57 578.272 383.55C575.949 382.53 573.937 380.943 572.237 378.79C570.594 376.58 569.772 373.633 569.772 369.95C569.772 366.72 570.594 363.858 572.237 361.365C573.881 358.871 576.176 356.945 579.122 355.585C582.126 354.225 585.554 353.545 589.407 353.545C594.961 353.545 599.494 354.933 603.007 357.71C606.577 360.486 608.589 364.17 609.042 368.76H600.542C600.259 366.493 599.069 364.51 596.972 362.81C594.876 361.053 592.099 360.175 588.642 360.175C585.412 360.175 582.777 361.025 580.737 362.725C578.697 364.368 577.677 366.691 577.677 369.695C577.677 371.848 578.272 373.605 579.462 374.965C580.709 376.325 582.211 377.373 583.967 378.11C585.781 378.79 588.302 379.583 591.532 380.49C595.442 381.566 598.587 382.643 600.967 383.72C603.347 384.74 605.387 386.355 607.087 388.565C608.787 390.718 609.637 393.665 609.637 397.405C609.637 400.295 608.872 403.015 607.342 405.565C605.812 408.115 603.546 410.183 600.542 411.77C597.539 413.356 593.997 414.15 589.917 414.15ZM628.755 360.6V380.405H650.345V386.78H628.755V407.18H652.895V413.555H621.02V354.225H652.895V360.6H628.755ZM672.164 354.31V391.795C672.164 397.065 673.439 400.975 675.989 403.525C678.596 406.075 682.194 407.35 686.784 407.35C691.318 407.35 694.859 406.075 697.409 403.525C700.016 400.975 701.319 397.065 701.319 391.795V354.31H709.054V391.71C709.054 396.64 708.063 400.805 706.079 404.205C704.096 407.548 701.404 410.041 698.004 411.685C694.661 413.328 690.893 414.15 686.699 414.15C682.506 414.15 678.709 413.328 675.309 411.685C671.966 410.041 669.303 407.548 667.319 404.205C665.393 400.805 664.429 396.64 664.429 391.71V354.31H672.164ZM474.776 499.65C474.776 504.58 473.076 508.688 469.676 511.975C466.332 515.205 461.204 516.82 454.291 516.82H442.901V541.555H435.166V482.31H454.291C460.977 482.31 466.049 483.925 469.506 487.155C473.019 490.385 474.776 494.55 474.776 499.65ZM454.291 510.445C458.597 510.445 461.771 509.51 463.811 507.64C465.851 505.77 466.871 503.106 466.871 499.65C466.871 492.34 462.677 488.685 454.291 488.685H442.901V510.445H454.291ZM515.584 541.555L501.474 517.33H492.124V541.555H484.389V482.31H503.514C507.991 482.31 511.759 483.075 514.819 484.605C517.936 486.135 520.259 488.203 521.789 490.81C523.319 493.416 524.084 496.391 524.084 499.735C524.084 503.815 522.894 507.413 520.514 510.53C518.191 513.646 514.678 515.715 509.974 516.735L524.849 541.555H515.584ZM492.124 511.125H503.514C507.708 511.125 510.853 510.105 512.949 508.065C515.046 505.968 516.094 503.191 516.094 499.735C516.094 496.221 515.046 493.501 512.949 491.575C510.909 489.648 507.764 488.685 503.514 488.685H492.124V511.125ZM562.963 542.15C557.466 542.15 552.451 540.875 547.918 538.325C543.385 535.718 539.786 532.12 537.123 527.53C534.516 522.883 533.213 517.67 533.213 511.89C533.213 506.11 534.516 500.925 537.123 496.335C539.786 491.688 543.385 488.09 547.918 485.54C552.451 482.933 557.466 481.63 562.963 481.63C568.516 481.63 573.56 482.933 578.093 485.54C582.626 488.09 586.196 491.66 588.803 496.25C591.41 500.84 592.713 506.053 592.713 511.89C592.713 517.726 591.41 522.94 588.803 527.53C586.196 532.12 582.626 535.718 578.093 538.325C573.56 540.875 568.516 542.15 562.963 542.15ZM562.963 535.435C567.1 535.435 570.811 534.471 574.098 532.545C577.441 530.618 580.048 527.87 581.918 524.3C583.845 520.73 584.808 516.593 584.808 511.89C584.808 507.13 583.845 502.993 581.918 499.48C580.048 495.91 577.47 493.161 574.183 491.235C570.896 489.308 567.156 488.345 562.963 488.345C558.77 488.345 555.03 489.308 551.743 491.235C548.456 493.161 545.85 495.91 543.923 499.48C542.053 502.993 541.118 507.13 541.118 511.89C541.118 516.593 542.053 520.73 543.923 524.3C545.85 527.87 548.456 530.618 551.743 532.545C555.086 534.471 558.826 535.435 562.963 535.435ZM632.759 482.31V526.085C632.759 530.958 631.258 534.868 628.254 537.815C625.251 540.705 621.284 542.15 616.354 542.15C611.368 542.15 607.373 540.676 604.369 537.73C601.366 534.726 599.864 530.646 599.864 525.49H607.599C607.656 528.38 608.393 530.731 609.809 532.545C611.283 534.358 613.464 535.265 616.354 535.265C619.244 535.265 621.398 534.415 622.814 532.715C624.231 530.958 624.939 528.748 624.939 526.085V482.31H632.759ZM655.733 488.6V508.405H677.323V514.78H655.733V535.18H679.873V541.555H647.998V482.225H679.873V488.6H655.733ZM728.042 482.31V488.6H711.892V541.555H704.157V488.6H687.922V482.31H728.042ZM764.423 542.15C758.926 542.15 753.911 540.875 749.378 538.325C744.845 535.718 741.246 532.12 738.583 527.53C735.976 522.883 734.673 517.67 734.673 511.89C734.673 506.11 735.976 500.925 738.583 496.335C741.246 491.688 744.845 488.09 749.378 485.54C753.911 482.933 758.926 481.63 764.423 481.63C769.976 481.63 775.02 482.933 779.553 485.54C784.086 488.09 787.656 491.66 790.263 496.25C792.87 500.84 794.173 506.053 794.173 511.89C794.173 517.726 792.87 522.94 790.263 527.53C787.656 532.12 784.086 535.718 779.553 538.325C775.02 540.875 769.976 542.15 764.423 542.15ZM764.423 535.435C768.56 535.435 772.271 534.471 775.558 532.545C778.901 530.618 781.508 527.87 783.378 524.3C785.305 520.73 786.268 516.593 786.268 511.89C786.268 507.13 785.305 502.993 783.378 499.48C781.508 495.91 778.93 493.161 775.643 491.235C772.356 489.308 768.616 488.345 764.423 488.345C760.23 488.345 756.49 489.308 753.203 491.235C749.916 493.161 747.31 495.91 745.383 499.48C743.513 502.993 742.578 507.13 742.578 511.89C742.578 516.593 743.513 520.73 745.383 524.3C747.31 527.87 749.916 530.618 753.203 532.545C756.546 534.471 760.286 535.435 764.423 535.435ZM806.849 542.065C805.376 542.065 804.129 541.555 803.109 540.535C802.089 539.515 801.579 538.268 801.579 536.795C801.579 535.321 802.089 534.075 803.109 533.055C804.129 532.035 805.376 531.525 806.849 531.525C808.266 531.525 809.456 532.035 810.419 533.055C811.439 534.075 811.949 535.321 811.949 536.795C811.949 538.268 811.439 539.515 810.419 540.535C809.456 541.555 808.266 542.065 806.849 542.065ZM824.696 542.065C823.223 542.065 821.976 541.555 820.956 540.535C819.936 539.515 819.426 538.268 819.426 536.795C819.426 535.321 819.936 534.075 820.956 533.055C821.976 532.035 823.223 531.525 824.696 531.525C826.113 531.525 827.303 532.035 828.266 533.055C829.286 534.075 829.796 535.321 829.796 536.795C829.796 538.268 829.286 539.515 828.266 540.535C827.303 541.555 826.113 542.065 824.696 542.065ZM842.543 542.065C841.069 542.065 839.823 541.555 838.803 540.535C837.783 539.515 837.273 538.268 837.273 536.795C837.273 535.321 837.783 534.075 838.803 533.055C839.823 532.035 841.069 531.525 842.543 531.525C843.959 531.525 845.149 532.035 846.113 533.055C847.133 534.075 847.643 535.321 847.643 536.795C847.643 538.268 847.133 539.515 846.113 540.535C845.149 541.555 843.959 542.065 842.543 542.065Z" fill="white"/>
</svg>
